<?xml version="1.0" encoding="UTF-8" standalone="no"?>
<svg
   viewBox="0 0 400 400"
   fill="none"
   version="1.1"
   id="svg2"
   sodipodi:docname="favicon_dark.svg"
   width="400"
   height="400"
   inkscape:version="1.3 (0e150ed, 2023-07-21)"
   xmlns:inkscape="http://www.inkscape.org/namespaces/inkscape"
   xmlns:sodipodi="http://sodipodi.sourceforge.net/DTD/sodipodi-0.dtd"
   xmlns="http://www.w3.org/2000/svg"
   xmlns:svg="http://www.w3.org/2000/svg">
  <defs
     id="defs2" />
  <sodipodi:namedview
     id="namedview2"
     pagecolor="#ffffff"
     bordercolor="#000000"
     borderopacity="0.25"
     inkscape:showpageshadow="2"
     inkscape:pageopacity="0.0"
     inkscape:pagecheckerboard="0"
     inkscape:deskcolor="#d1d1d1"
     inkscape:zoom="0.50971922"
     inkscape:cx="199.12924"
     inkscape:cy="231.5"
     inkscape:window-width="1312"
     inkscape:window-height="449"
     inkscape:window-x="0"
     inkscape:window-y="44"
     inkscape:window-maximized="0"
     inkscape:current-layer="svg2" />
  <path
     fill-rule="evenodd"
     clip-rule="evenodd"
     d="M 0,0 H 400 V 5 H 0 Z M 400,20 H 0 v 5 H 400 Z M 0,40 h 400 v 5 H 0 Z M 400,60 H 0 v 5 H 400 Z M 0,80 h 400 v 5 H 0 Z m 400,20 H 0 v 5 H 400 Z M 126,120 H 0 v 5 H 126 Z M 0,140 h 99 v 5 H 0 Z m 81,20 H 0 v 5 H 81 Z M 68,180 H 0 v 5 h 68 z m -7,20 H 0 v 5 H 61 Z M 0,220 h 56 v 5 H 0 Z m 53,20 H 0 v 5 h 53 z m 347,40 v 20 H 0 V 280 Z M 0,305 h 400 v 40 h -25 v 5 h 25 v 50 H 0 v -50 h 25 v -5 H 0 Z M 400,275 V 265 H 261.415 L 221,251 194.05,260.336 178,257 139.51,265 H 0 v 10 z m 0,-95 h -68 v 5 h 68 z m -61,20 h 61 v 5 h -61 z m 61,20 h -56 v 5 h 56 z m -53,20 h 53 v 5 h -53 z m 53,-80 h -81 v 5 h 81 z m -99,-20 h 99 v 5 h -99 z m 99,-20 H 274 v 5 H 400 Z M 53.5025,378.68 c 4.3733,1.067 8.9067,1.6 13.6,1.6 5.8133,0 10.64,-0.853 14.48,-2.56 3.84,-1.76 6.72,-4.053 8.64,-6.88 1.9733,-2.88 2.96,-6.027 2.96,-9.44 0,-2.933 -0.56,-5.387 -1.68,-7.36 -1.12,-1.973 -2.6133,-3.573 -4.48,-4.8 -1.8133,-1.227 -3.8133,-2.213 -6,-2.96 -2.1867,-0.747 -4.4,-1.333 -6.64,-1.76 -2.1867,-0.427 -4.2133,-0.827 -6.08,-1.2 -1.8133,-0.373 -3.28,-0.827 -4.4,-1.36 -1.12,-0.587 -1.68,-1.36 -1.68,-2.32 0,-0.64 0.2133,-1.227 0.64,-1.76 0.48,-0.533 1.2533,-0.96 2.32,-1.28 1.0667,-0.32 2.5067,-0.48 4.32,-0.48 2.4533,0 4.96,0.347 7.52,1.04 2.6133,0.693 5.3067,1.733 8.08,3.12 l 5.68,-13.68 c -2.9333,-1.653 -6.24,-2.88 -9.92,-3.68 -3.68,-0.8 -7.4133,-1.2 -11.2,-1.2 -5.76,0 -10.5867,0.853 -14.48,2.56 -3.84,1.707 -6.7467,4 -8.72,6.88 -1.92,2.827 -2.88,5.973 -2.88,9.44 0,2.987 0.56,5.493 1.68,7.52 1.12,1.973 2.5867,3.573 4.4,4.8 1.8667,1.227 3.8933,2.213 6.08,2.96 2.24,0.747 4.4533,1.36 6.64,1.84 2.1867,0.427 4.1867,0.853 6,1.28 1.8667,0.373 3.36,0.853 4.48,1.44 1.12,0.587 1.68,1.387 1.68,2.4 0,0.64 -0.24,1.2 -0.72,1.68 -0.48,0.427 -1.2533,0.773 -2.32,1.04 -1.0133,0.213 -2.4267,0.32 -4.24,0.32 -3.0933,0 -6.2933,-0.453 -9.6,-1.36 -3.2533,-0.96 -6.2133,-2.213 -8.88,-3.76 l -6.08,13.76 c 2.8267,1.707 6.4267,3.093 10.8,4.16 z M 128.401,323 l -24.48,56 h 19.2 l 3.751,-9.76 h 21.297 l 3.752,9.76 h 19.52 l -24.48,-56 z m 14.541,32.64 -5.421,-14.106 -5.422,14.106 z m 63.924,-32.64 -24.48,56 h 19.2 l 3.752,-9.76 h 21.297 l 3.751,9.76 h 19.52 l -24.48,-56 z m 14.542,32.64 -5.422,-14.105 -5.421,14.105 z M 264.119,323 v 56 h 18.88 v -14.08 h 5.143 l 9.497,14.08 h 20.16 l -11.76,-17.235 c 3.148,-1.602 5.628,-3.75 7.44,-6.445 2.08,-3.147 3.12,-6.88 3.12,-11.2 0,-4.32 -1.04,-8.053 -3.12,-11.2 -2.08,-3.2 -5.04,-5.653 -8.88,-7.36 -3.786,-1.707 -8.293,-2.56 -13.52,-2.56 z m 18.88,27.68 h 6.88 c 2.614,0 4.534,-0.587 5.76,-1.76 1.28,-1.173 1.92,-2.773 1.92,-4.8 0,-2.027 -0.64,-3.627 -1.92,-4.8 -1.226,-1.173 -3.146,-1.76 -5.76,-1.76 h -6.88 z M 334.929,323 v 56 h 18.88 v -56 z"
     fill="#000000"
     id="path2" />
</svg>
