<svg viewBox="0 0 400 463" fill="none" xmlns="http://www.w3.org/2000/svg">
<path d="M12.9409 434.24C11.8209 434.24 10.7475 434.093 9.72086 433.8C8.6942 433.493 7.86753 433.1 7.24086 432.62L8.34086 430.18C8.94086 430.607 9.64753 430.96 10.4609 431.24C11.2875 431.507 12.1209 431.64 12.9609 431.64C13.6009 431.64 14.1142 431.58 14.5009 431.46C14.9009 431.327 15.1942 431.147 15.3809 430.92C15.5675 430.693 15.6609 430.433 15.6609 430.14C15.6609 429.767 15.5142 429.473 15.2209 429.26C14.9275 429.033 14.5409 428.853 14.0609 428.72C13.5809 428.573 13.0475 428.44 12.4609 428.32C11.8875 428.187 11.3075 428.027 10.7209 427.84C10.1475 427.653 9.62086 427.413 9.14086 427.12C8.66086 426.827 8.26753 426.44 7.96086 425.96C7.66753 425.48 7.52086 424.867 7.52086 424.12C7.52086 423.32 7.7342 422.593 8.16086 421.94C8.60086 421.273 9.2542 420.747 10.1209 420.36C11.0009 419.96 12.1009 419.76 13.4209 419.76C14.3009 419.76 15.1675 419.867 16.0209 420.08C16.8742 420.28 17.6275 420.587 18.2809 421L17.2809 423.46C16.6275 423.087 15.9742 422.813 15.3209 422.64C14.6675 422.453 14.0275 422.36 13.4009 422.36C12.7742 422.36 12.2609 422.433 11.8609 422.58C11.4609 422.727 11.1742 422.92 11.0009 423.16C10.8275 423.387 10.7409 423.653 10.7409 423.96C10.7409 424.32 10.8875 424.613 11.1809 424.84C11.4742 425.053 11.8609 425.227 12.3409 425.36C12.8209 425.493 13.3475 425.627 13.9209 425.76C14.5075 425.893 15.0875 426.047 15.6609 426.22C16.2475 426.393 16.7809 426.627 17.2609 426.92C17.7409 427.213 18.1275 427.6 18.4209 428.08C18.7275 428.56 18.8809 429.167 18.8809 429.9C18.8809 430.687 18.6609 431.407 18.2209 432.06C17.7809 432.713 17.1209 433.24 16.2409 433.64C15.3742 434.04 14.2742 434.24 12.9409 434.24ZM31.4948 420H34.7348V434H31.4948V420ZM25.1348 434H21.8948V420H25.1348V434ZM31.7348 428.26H24.8948V425.52H31.7348V428.26ZM45.6471 434.24C44.5404 434.24 43.5138 434.06 42.5671 433.7C41.6338 433.34 40.8204 432.833 40.1271 432.18C39.4471 431.527 38.9138 430.76 38.5271 429.88C38.1538 429 37.9671 428.04 37.9671 427C37.9671 425.96 38.1538 425 38.5271 424.12C38.9138 423.24 39.4538 422.473 40.1471 421.82C40.8404 421.167 41.6538 420.66 42.5871 420.3C43.5204 419.94 44.5338 419.76 45.6271 419.76C46.7338 419.76 47.7471 419.94 48.6671 420.3C49.6004 420.66 50.4071 421.167 51.0871 421.82C51.7804 422.473 52.3204 423.24 52.7071 424.12C53.0938 424.987 53.2871 425.947 53.2871 427C53.2871 428.04 53.0938 429.007 52.7071 429.9C52.3204 430.78 51.7804 431.547 51.0871 432.2C50.4071 432.84 49.6004 433.34 48.6671 433.7C47.7471 434.06 46.7404 434.24 45.6471 434.24ZM45.6271 431.48C46.2538 431.48 46.8271 431.373 47.3471 431.16C47.8804 430.947 48.3471 430.64 48.7471 430.24C49.1471 429.84 49.4538 429.367 49.6671 428.82C49.8938 428.273 50.0071 427.667 50.0071 427C50.0071 426.333 49.8938 425.727 49.6671 425.18C49.4538 424.633 49.1471 424.16 48.7471 423.76C48.3604 423.36 47.9004 423.053 47.3671 422.84C46.8338 422.627 46.2538 422.52 45.6271 422.52C45.0004 422.52 44.4204 422.627 43.8871 422.84C43.3671 423.053 42.9071 423.36 42.5071 423.76C42.1071 424.16 41.7938 424.633 41.5671 425.18C41.3538 425.727 41.2471 426.333 41.2471 427C41.2471 427.653 41.3538 428.26 41.5671 428.82C41.7938 429.367 42.1004 429.84 42.4871 430.24C42.8871 430.64 43.3538 430.947 43.8871 431.16C44.4204 431.373 45.0004 431.48 45.6271 431.48ZM56.5221 434V420H59.7621V431.36H66.7821V434H56.5221ZM67.6305 434L73.8705 420H77.0705L83.3305 434H79.9305L74.8105 421.64H76.0905L70.9505 434H67.6305ZM70.7505 431L71.6105 428.54H78.8105L79.6905 431H70.7505ZM85.5831 434V420H91.6431C92.8964 420 93.9764 420.207 94.8831 420.62C95.7897 421.02 96.4897 421.6 96.9831 422.36C97.4764 423.12 97.7231 424.027 97.7231 425.08C97.7231 426.12 97.4764 427.02 96.9831 427.78C96.4897 428.527 95.7897 429.1 94.8831 429.5C93.9764 429.9 92.8964 430.1 91.6431 430.1H87.3831L88.8231 428.68V434H85.5831ZM94.483 434L90.9831 428.92H94.4431L97.9831 434H94.483ZM88.8231 429.04L87.3831 427.52H91.4631C92.4631 427.52 93.2097 427.307 93.7031 426.88C94.1964 426.44 94.4431 425.84 94.4431 425.08C94.4431 424.307 94.1964 423.707 93.7031 423.28C93.2097 422.853 92.4631 422.64 91.4631 422.64H87.3831L88.8231 421.1V429.04ZM101.09 434V420H104.33V431.36H111.35V434H101.09ZM115.995 434V428.28L116.735 430.24L110.575 420H114.015L118.735 427.86H116.755L121.495 420H124.675L118.515 430.24L119.235 428.28V434H115.995ZM131.455 434L137.695 420H140.895L147.155 434H143.755L138.635 421.64H139.915L134.775 434H131.455ZM134.575 431L135.435 428.54H142.635L143.515 431H134.575ZM149.407 434V420H156.247C158.007 420 159.327 420.333 160.207 421C161.101 421.667 161.547 422.547 161.547 423.64C161.547 424.373 161.367 425.013 161.007 425.56C160.647 426.093 160.154 426.507 159.527 426.8C158.901 427.093 158.181 427.24 157.367 427.24L157.747 426.42C158.627 426.42 159.407 426.567 160.087 426.86C160.767 427.14 161.294 427.56 161.667 428.12C162.054 428.68 162.247 429.367 162.247 430.18C162.247 431.38 161.774 432.32 160.827 433C159.881 433.667 158.487 434 156.647 434H149.407ZM152.627 431.56H156.407C157.247 431.56 157.881 431.427 158.307 431.16C158.747 430.88 158.967 430.44 158.967 429.84C158.967 429.253 158.747 428.82 158.307 428.54C157.881 428.247 157.247 428.1 156.407 428.1H152.387V425.74H155.847C156.634 425.74 157.234 425.607 157.647 425.34C158.074 425.06 158.287 424.64 158.287 424.08C158.287 423.533 158.074 423.127 157.647 422.86C157.234 422.58 156.634 422.44 155.847 422.44H152.627V431.56ZM170.1 434.24C168.98 434.24 167.907 434.093 166.88 433.8C165.854 433.493 165.027 433.1 164.4 432.62L165.5 430.18C166.1 430.607 166.807 430.96 167.62 431.24C168.447 431.507 169.28 431.64 170.12 431.64C170.76 431.64 171.274 431.58 171.66 431.46C172.06 431.327 172.354 431.147 172.54 430.92C172.727 430.693 172.82 430.433 172.82 430.14C172.82 429.767 172.674 429.473 172.38 429.26C172.087 429.033 171.7 428.853 171.22 428.72C170.74 428.573 170.207 428.44 169.62 428.32C169.047 428.187 168.467 428.027 167.88 427.84C167.307 427.653 166.78 427.413 166.3 427.12C165.82 426.827 165.427 426.44 165.12 425.96C164.827 425.48 164.68 424.867 164.68 424.12C164.68 423.32 164.894 422.593 165.32 421.94C165.76 421.273 166.414 420.747 167.28 420.36C168.16 419.96 169.26 419.76 170.58 419.76C171.46 419.76 172.327 419.867 173.18 420.08C174.034 420.28 174.787 420.587 175.44 421L174.44 423.46C173.787 423.087 173.134 422.813 172.48 422.64C171.827 422.453 171.187 422.36 170.56 422.36C169.934 422.36 169.42 422.433 169.02 422.58C168.62 422.727 168.334 422.92 168.16 423.16C167.987 423.387 167.9 423.653 167.9 423.96C167.9 424.32 168.047 424.613 168.34 424.84C168.634 425.053 169.02 425.227 169.5 425.36C169.98 425.493 170.507 425.627 171.08 425.76C171.667 425.893 172.247 426.047 172.82 426.22C173.407 426.393 173.94 426.627 174.42 426.92C174.9 427.213 175.287 427.6 175.58 428.08C175.887 428.56 176.04 429.167 176.04 429.9C176.04 430.687 175.82 431.407 175.38 432.06C174.94 432.713 174.28 433.24 173.4 433.64C172.534 434.04 171.434 434.24 170.1 434.24ZM181.759 434V422.64H177.279V420H189.479V422.64H184.999V434H181.759ZM192.022 434V420H198.082C199.335 420 200.415 420.207 201.322 420.62C202.229 421.02 202.929 421.6 203.422 422.36C203.915 423.12 204.162 424.027 204.162 425.08C204.162 426.12 203.915 427.02 203.422 427.78C202.929 428.527 202.229 429.1 201.322 429.5C200.415 429.9 199.335 430.1 198.082 430.1H193.822L195.262 428.68V434H192.022ZM200.922 434L197.422 428.92H200.882L204.422 434H200.922ZM195.262 429.04L193.822 427.52H197.902C198.902 427.52 199.649 427.307 200.142 426.88C200.635 426.44 200.882 425.84 200.882 425.08C200.882 424.307 200.635 423.707 200.142 423.28C199.649 422.853 198.902 422.64 197.902 422.64H193.822L195.262 421.1V429.04ZM205.689 434L211.929 420H215.129L221.389 434H217.989L212.869 421.64H214.149L209.009 434H205.689ZM208.809 431L209.669 428.54H216.869L217.749 431H208.809ZM230.146 434.24C229.066 434.24 228.06 434.067 227.126 433.72C226.206 433.36 225.406 432.853 224.726 432.2C224.046 431.547 223.513 430.78 223.126 429.9C222.753 429.02 222.566 428.053 222.566 427C222.566 425.947 222.753 424.98 223.126 424.1C223.513 423.22 224.046 422.453 224.726 421.8C225.42 421.147 226.226 420.647 227.146 420.3C228.066 419.94 229.073 419.76 230.166 419.76C231.38 419.76 232.473 419.973 233.446 420.4C234.433 420.813 235.26 421.427 235.926 422.24L233.846 424.16C233.366 423.613 232.833 423.207 232.246 422.94C231.66 422.66 231.02 422.52 230.326 422.52C229.673 422.52 229.073 422.627 228.526 422.84C227.98 423.053 227.506 423.36 227.106 423.76C226.706 424.16 226.393 424.633 226.166 425.18C225.953 425.727 225.846 426.333 225.846 427C225.846 427.667 225.953 428.273 226.166 428.82C226.393 429.367 226.706 429.84 227.106 430.24C227.506 430.64 227.98 430.947 228.526 431.16C229.073 431.373 229.673 431.48 230.326 431.48C231.02 431.48 231.66 431.347 232.246 431.08C232.833 430.8 233.366 430.38 233.846 429.82L235.926 431.74C235.26 432.553 234.433 433.173 233.446 433.6C232.473 434.027 231.373 434.24 230.146 434.24ZM241.678 434V422.64H237.198V420H249.398V422.64H244.918V434H241.678ZM256.565 434L262.805 420H266.005L272.265 434H268.865L263.745 421.64H265.025L259.885 434H256.565ZM259.685 431L260.545 428.54H267.745L268.625 431H259.685ZM274.517 434V420H277.197L285.457 430.08H284.157V420H287.357V434H284.697L276.417 423.92H277.717V434H274.517ZM289.63 434L295.87 420H299.07L305.33 434H301.93L296.81 421.64H298.09L292.95 434H289.63ZM292.75 431L293.61 428.54H300.81L301.69 431H292.75ZM307.582 434V420H310.822V431.36H317.842V434H307.582ZM322.487 434V428.28L323.227 430.24L317.067 420H320.507L325.227 427.86H323.247L327.987 420H331.167L325.007 430.24L325.727 428.28V434H322.487ZM337.63 434.24C336.51 434.24 335.437 434.093 334.41 433.8C333.383 433.493 332.557 433.1 331.93 432.62L333.03 430.18C333.63 430.607 334.337 430.96 335.15 431.24C335.977 431.507 336.81 431.64 337.65 431.64C338.29 431.64 338.803 431.58 339.19 431.46C339.59 431.327 339.883 431.147 340.07 430.92C340.257 430.693 340.35 430.433 340.35 430.14C340.35 429.767 340.203 429.473 339.91 429.26C339.617 429.033 339.23 428.853 338.75 428.72C338.27 428.573 337.737 428.44 337.15 428.32C336.577 428.187 335.997 428.027 335.41 427.84C334.837 427.653 334.31 427.413 333.83 427.12C333.35 426.827 332.957 426.44 332.65 425.96C332.357 425.48 332.21 424.867 332.21 424.12C332.21 423.32 332.423 422.593 332.85 421.94C333.29 421.273 333.943 420.747 334.81 420.36C335.69 419.96 336.79 419.76 338.11 419.76C338.99 419.76 339.857 419.867 340.71 420.08C341.563 420.28 342.317 420.587 342.97 421L341.97 423.46C341.317 423.087 340.663 422.813 340.01 422.64C339.357 422.453 338.717 422.36 338.09 422.36C337.463 422.36 336.95 422.433 336.55 422.58C336.15 422.727 335.863 422.92 335.69 423.16C335.517 423.387 335.43 423.653 335.43 423.96C335.43 424.32 335.577 424.613 335.87 424.84C336.163 425.053 336.55 425.227 337.03 425.36C337.51 425.493 338.037 425.627 338.61 425.76C339.197 425.893 339.777 426.047 340.35 426.22C340.937 426.393 341.47 426.627 341.95 426.92C342.43 427.213 342.817 427.6 343.11 428.08C343.417 428.56 343.57 429.167 343.57 429.9C343.57 430.687 343.35 431.407 342.91 432.06C342.47 432.713 341.81 433.24 340.93 433.64C340.063 434.04 338.963 434.24 337.63 434.24ZM346.584 434V420H349.824V434H346.584ZM358.546 434.24C357.426 434.24 356.353 434.093 355.326 433.8C354.3 433.493 353.473 433.1 352.846 432.62L353.946 430.18C354.546 430.607 355.253 430.96 356.066 431.24C356.893 431.507 357.726 431.64 358.566 431.64C359.206 431.64 359.72 431.58 360.106 431.46C360.506 431.327 360.8 431.147 360.986 430.92C361.173 430.693 361.266 430.433 361.266 430.14C361.266 429.767 361.12 429.473 360.826 429.26C360.533 429.033 360.146 428.853 359.666 428.72C359.186 428.573 358.653 428.44 358.066 428.32C357.493 428.187 356.913 428.027 356.326 427.84C355.753 427.653 355.226 427.413 354.746 427.12C354.266 426.827 353.873 426.44 353.566 425.96C353.273 425.48 353.126 424.867 353.126 424.12C353.126 423.32 353.34 422.593 353.766 421.94C354.206 421.273 354.86 420.747 355.726 420.36C356.606 419.96 357.706 419.76 359.026 419.76C359.906 419.76 360.773 419.867 361.626 420.08C362.48 420.28 363.233 420.587 363.886 421L362.886 423.46C362.233 423.087 361.58 422.813 360.926 422.64C360.273 422.453 359.633 422.36 359.006 422.36C358.38 422.36 357.866 422.433 357.466 422.58C357.066 422.727 356.78 422.92 356.606 423.16C356.433 423.387 356.346 423.653 356.346 423.96C356.346 424.32 356.493 424.613 356.786 424.84C357.08 425.053 357.466 425.227 357.946 425.36C358.426 425.493 358.953 425.627 359.526 425.76C360.113 425.893 360.693 426.047 361.266 426.22C361.853 426.393 362.386 426.627 362.866 426.92C363.346 427.213 363.733 427.6 364.026 428.08C364.333 428.56 364.486 429.167 364.486 429.9C364.486 430.687 364.266 431.407 363.826 432.06C363.386 432.713 362.726 433.24 361.846 433.64C360.98 434.04 359.88 434.24 358.546 434.24ZM378.364 434.24C377.338 434.24 376.424 434.073 375.624 433.74C374.824 433.407 374.191 432.953 373.724 432.38C373.258 431.807 373.024 431.147 373.024 430.4C373.024 429.707 373.178 429.087 373.484 428.54C373.791 427.98 374.278 427.46 374.944 426.98C375.611 426.487 376.458 426.007 377.484 425.54C378.231 425.193 378.818 424.887 379.244 424.62C379.671 424.353 379.971 424.1 380.144 423.86C380.318 423.607 380.404 423.353 380.404 423.1C380.404 422.753 380.284 422.473 380.044 422.26C379.818 422.047 379.478 421.94 379.024 421.94C378.544 421.94 378.171 422.06 377.904 422.3C377.638 422.54 377.504 422.847 377.504 423.22C377.504 423.42 377.544 423.62 377.624 423.82C377.704 424.007 377.858 424.227 378.084 424.48C378.311 424.72 378.631 425.033 379.044 425.42L386.424 432.26L384.724 434.24L376.584 426.68C376.118 426.253 375.744 425.853 375.464 425.48C375.184 425.107 374.978 424.74 374.844 424.38C374.724 424.02 374.664 423.647 374.664 423.26C374.664 422.58 374.844 421.98 375.204 421.46C375.564 420.94 376.071 420.54 376.724 420.26C377.378 419.967 378.144 419.82 379.024 419.82C379.838 419.82 380.538 419.953 381.124 420.22C381.724 420.473 382.191 420.84 382.524 421.32C382.871 421.8 383.044 422.373 383.044 423.04C383.044 423.627 382.898 424.167 382.604 424.66C382.311 425.14 381.851 425.593 381.224 426.02C380.611 426.447 379.804 426.88 378.804 427.32C378.124 427.627 377.584 427.927 377.184 428.22C376.798 428.5 376.518 428.787 376.344 429.08C376.171 429.373 376.084 429.7 376.084 430.06C376.084 430.393 376.184 430.693 376.384 430.96C376.598 431.227 376.891 431.433 377.264 431.58C377.638 431.727 378.078 431.8 378.584 431.8C379.398 431.8 380.144 431.613 380.824 431.24C381.504 430.853 382.078 430.287 382.544 429.54C383.024 428.78 383.364 427.86 383.564 426.78L386.064 427.56C385.784 428.92 385.284 430.1 384.564 431.1C383.844 432.1 382.958 432.873 381.904 433.42C380.851 433.967 379.671 434.24 378.364 434.24ZM90.3284 458V444H96.3884C97.6417 444 98.7217 444.207 99.6284 444.62C100.535 445.02 101.235 445.6 101.728 446.36C102.222 447.12 102.468 448.027 102.468 449.08C102.468 450.12 102.222 451.02 101.728 451.78C101.235 452.527 100.535 453.1 99.6284 453.5C98.7217 453.9 97.6417 454.1 96.3884 454.1H92.1284L93.5684 452.68V458H90.3284ZM99.2284 458L95.7284 452.92H99.1884L102.728 458H99.2284ZM93.5684 453.04L92.1284 451.52H96.2084C97.2084 451.52 97.955 451.307 98.4484 450.88C98.9417 450.44 99.1884 449.84 99.1884 449.08C99.1884 448.307 98.9417 447.707 98.4484 447.28C97.955 446.853 97.2084 446.64 96.2084 446.64H92.1284L93.5684 445.1V453.04ZM108.815 449.64H115.555V452.16H108.815V449.64ZM109.055 455.4H116.675V458H105.835V444H116.415V446.6H109.055V455.4ZM124.058 458L118.018 444H121.518L126.798 456.4H124.738L130.098 444H133.318L127.258 458H124.058ZM135.287 458V444H138.527V458H135.287ZM145.629 449.64H152.369V452.16H145.629V449.64ZM145.869 455.4H153.489V458H142.649V444H153.229V446.6H145.869V455.4ZM160.032 458L155.452 444H158.812L162.792 456.4H161.112L165.272 444H168.272L172.272 456.4H170.652L174.732 444H177.832L173.252 458H169.772L166.232 447.12H167.152L163.512 458H160.032ZM187.198 458V444H190.438V458H187.198ZM194.56 458V444H197.24L205.5 454.08H204.2V444H207.4V458H204.74L196.46 447.92H197.76V458H194.56ZM214.413 458V446.64H209.933V444H222.133V446.64H217.653V458H214.413ZM227.656 449.64H234.396V452.16H227.656V449.64ZM227.896 455.4H235.516V458H224.676V444H235.256V446.6H227.896V455.4ZM238.894 458V444H244.954C246.207 444 247.287 444.207 248.194 444.62C249.101 445.02 249.801 445.6 250.294 446.36C250.787 447.12 251.034 448.027 251.034 449.08C251.034 450.12 250.787 451.02 250.294 451.78C249.801 452.527 249.101 453.1 248.194 453.5C247.287 453.9 246.207 454.1 244.954 454.1H240.694L242.134 452.68V458H238.894ZM247.794 458L244.294 452.92H247.754L251.294 458H247.794ZM242.134 453.04L240.694 451.52H244.774C245.774 451.52 246.521 451.307 247.014 450.88C247.507 450.44 247.754 449.84 247.754 449.08C247.754 448.307 247.507 447.707 247.014 447.28C246.521 446.853 245.774 446.64 244.774 446.64H240.694L242.134 445.1V453.04ZM257.401 450.3H264.121V452.9H257.401V450.3ZM257.641 458H254.401V444H264.981V446.6H257.641V458ZM265.549 458L271.789 444H274.989L281.249 458H277.849L272.729 445.64H274.009L268.869 458H265.549ZM268.669 455L269.529 452.54H276.729L277.609 455H268.669ZM290.006 458.24C288.926 458.24 287.919 458.067 286.986 457.72C286.066 457.36 285.266 456.853 284.586 456.2C283.906 455.547 283.372 454.78 282.986 453.9C282.612 453.02 282.426 452.053 282.426 451C282.426 449.947 282.612 448.98 282.986 448.1C283.372 447.22 283.906 446.453 284.586 445.8C285.279 445.147 286.086 444.647 287.006 444.3C287.926 443.94 288.932 443.76 290.026 443.76C291.239 443.76 292.332 443.973 293.306 444.4C294.292 444.813 295.119 445.427 295.786 446.24L293.706 448.16C293.226 447.613 292.692 447.207 292.106 446.94C291.519 446.66 290.879 446.52 290.186 446.52C289.532 446.52 288.932 446.627 288.386 446.84C287.839 447.053 287.366 447.36 286.966 447.76C286.566 448.16 286.252 448.633 286.026 449.18C285.812 449.727 285.706 450.333 285.706 451C285.706 451.667 285.812 452.273 286.026 452.82C286.252 453.367 286.566 453.84 286.966 454.24C287.366 454.64 287.839 454.947 288.386 455.16C288.932 455.373 289.532 455.48 290.186 455.48C290.879 455.48 291.519 455.347 292.106 455.08C292.692 454.8 293.226 454.38 293.706 453.82L295.786 455.74C295.119 456.553 294.292 457.173 293.306 457.6C292.332 458.027 291.232 458.24 290.006 458.24ZM301.754 449.64H308.494V452.16H301.754V449.64ZM301.994 455.4H309.614V458H298.774V444H309.354V446.6H301.994V455.4Z" fill="black"/>
<path fill-rule="evenodd" clip-rule="evenodd" d="M0 0H400V5H0V0ZM400 20H0V25H400V20ZM0 40H400V45H0V40ZM400 60H0V65H400V60ZM0 80H400V85H0V80ZM400 100H0V105H400V100ZM126 120H0V125H126V120ZM0 140H99V145H0V140ZM81 160H0V165H81V160ZM68 180H0V185H68V180ZM61 200H0V205H61V200ZM0 220H56V225H0V220ZM53 240H0V245H53V240ZM400 280V300H0V280H400ZM0 305H400V345H375V350H400V400H0V350H25V345H0V305ZM400 275V265H261.415L221 251L194.05 260.336L178 257L139.51 265H0V275H400ZM400 180H332V185H400V180ZM339 200H400V205H339V200ZM400 220H344V225H400V220ZM347 240H400V245H347V240ZM400 160H319V165H400V160ZM301 140H400V145H301V140ZM400 120H274V125H400V120ZM53.5025 378.68C57.8758 379.747 62.4092 380.28 67.1025 380.28C72.9158 380.28 77.7425 379.427 81.5825 377.72C85.4225 375.96 88.3025 373.667 90.2225 370.84C92.1958 367.96 93.1825 364.813 93.1825 361.4C93.1825 358.467 92.6225 356.013 91.5025 354.04C90.3825 352.067 88.8892 350.467 87.0225 349.24C85.2092 348.013 83.2092 347.027 81.0225 346.28C78.8358 345.533 76.6225 344.947 74.3825 344.52C72.1958 344.093 70.1692 343.693 68.3025 343.32C66.4892 342.947 65.0225 342.493 63.9025 341.96C62.7825 341.373 62.2225 340.6 62.2225 339.64C62.2225 339 62.4358 338.413 62.8625 337.88C63.3425 337.347 64.1158 336.92 65.1825 336.6C66.2492 336.28 67.6892 336.12 69.5025 336.12C71.9558 336.12 74.4625 336.467 77.0225 337.16C79.6358 337.853 82.3292 338.893 85.1025 340.28L90.7825 326.6C87.8492 324.947 84.5425 323.72 80.8625 322.92C77.1825 322.12 73.4492 321.72 69.6625 321.72C63.9025 321.72 59.0758 322.573 55.1825 324.28C51.3425 325.987 48.4358 328.28 46.4625 331.16C44.5425 333.987 43.5825 337.133 43.5825 340.6C43.5825 343.587 44.1425 346.093 45.2625 348.12C46.3825 350.093 47.8492 351.693 49.6625 352.92C51.5292 354.147 53.5558 355.133 55.7425 355.88C57.9825 356.627 60.1958 357.24 62.3825 357.72C64.5692 358.147 66.5692 358.573 68.3825 359C70.2492 359.373 71.7425 359.853 72.8625 360.44C73.9825 361.027 74.5425 361.827 74.5425 362.84C74.5425 363.48 74.3025 364.04 73.8225 364.52C73.3425 364.947 72.5692 365.293 71.5025 365.56C70.4892 365.773 69.0758 365.88 67.2625 365.88C64.1692 365.88 60.9692 365.427 57.6625 364.52C54.4092 363.56 51.4492 362.307 48.7825 360.76L42.7025 374.52C45.5292 376.227 49.1292 377.613 53.5025 378.68ZM128.401 323L103.921 379H123.121L126.872 369.24H148.169L151.921 379H171.441L146.961 323H128.401ZM142.942 355.64L137.521 341.534L132.099 355.64H142.942ZM206.866 323L182.386 379H201.586L205.338 369.24H226.635L230.386 379H249.906L225.426 323H206.866ZM221.408 355.64L215.986 341.535L210.565 355.64H221.408ZM264.119 323V379H282.999V364.92H288.142L297.639 379H317.799L306.039 361.765C309.187 360.163 311.667 358.015 313.479 355.32C315.559 352.173 316.599 348.44 316.599 344.12C316.599 339.8 315.559 336.067 313.479 332.92C311.399 329.72 308.439 327.267 304.599 325.56C300.813 323.853 296.306 323 291.079 323H264.119ZM282.999 350.68H289.879C292.493 350.68 294.413 350.093 295.639 348.92C296.919 347.747 297.559 346.147 297.559 344.12C297.559 342.093 296.919 340.493 295.639 339.32C294.413 338.147 292.493 337.56 289.879 337.56H282.999V350.68ZM334.929 323V379H353.809V323H334.929Z" fill="black"/>
</svg>
